<svg width="92" height="35" viewBox="0 0 92 35" fill="none" xmlns="http://www.w3.org/2000/svg">
<path d="M0 21V0.349999H2.1V21H0ZM3.15 21V0.349999H6.3V21H3.15ZM9.45 21V0.349999H10.5V21H9.45ZM5.215 24.85H2.94V24.045H8.54V24.85H6.16V32.165H5.215V24.85ZM11.5527 21V0.349999H12.6027V21H11.5527ZM16.8027 21V0.349999H18.9027V21H16.8027ZM19.9527 21V0.349999H21.0027V21H19.9527ZM15.3677 31.395H16.9077V26.985H15.4377V26.215H17.8177V31.395H19.2177V32.165H15.3677V31.395ZM17.3277 24.955C17.1411 24.955 16.9777 24.8967 16.8377 24.78C16.7211 24.64 16.6627 24.4767 16.6627 24.29C16.6627 24.1033 16.7211 23.9517 16.8377 23.835C16.9544 23.695 17.1177 23.625 17.3277 23.625C17.4911 23.625 17.6427 23.695 17.7827 23.835C17.9227 23.975 17.9927 24.1267 17.9927 24.29C17.9927 24.4767 17.9227 24.64 17.7827 24.78C17.6427 24.8967 17.4911 24.955 17.3277 24.955ZM23.1055 21V0.349999H24.1555V21H23.1055ZM25.2055 21V0.349999H26.2555V21H25.2055ZM28.3555 21V0.349999H32.5555V21H28.3555ZM26.3955 26.215H27.3405V27.405C27.4805 26.9617 27.7138 26.635 28.0405 26.425C28.3671 26.1917 28.7405 26.075 29.1605 26.075C29.6038 26.075 30.0238 26.1917 30.4205 26.425C30.7938 26.6583 31.0855 27.0083 31.2955 27.475C31.5288 27.9183 31.6455 28.4783 31.6455 29.155C31.6455 29.8083 31.5288 30.38 31.2955 30.87C31.0621 31.36 30.7588 31.7217 30.3855 31.955C29.9888 32.1883 29.5688 32.305 29.1255 32.305C28.7755 32.305 28.4488 32.2233 28.1455 32.06C27.8188 31.8967 27.5621 31.675 27.3755 31.395V34.335H26.3955V26.215ZM28.9855 31.5C29.4521 31.5 29.8488 31.3133 30.1755 30.94C30.5021 30.59 30.6655 30.0067 30.6655 29.19C30.6655 28.4433 30.5255 27.8717 30.2455 27.475C29.9655 27.0783 29.5571 26.88 29.0205 26.88C28.5305 26.88 28.1338 27.09 27.8305 27.51C27.5038 27.93 27.3405 28.56 27.3405 29.4C27.3638 30.0767 27.5155 30.59 27.7955 30.94C28.0988 31.3133 28.4955 31.5 28.9855 31.5ZM34.6582 21V0.349999H36.7582V21H34.6582ZM37.8082 21V0.349999H40.9582V21H37.8082ZM44.1082 21V0.349999H45.1582V21H44.1082ZM39.8732 24.85H37.5982V24.045H43.1982V24.85H40.8182V32.165H39.8732V24.85ZM46.2109 21V0.349999H47.2609V21H46.2109ZM50.4109 21V0.349999H54.6109V21H50.4109ZM55.6609 21V0.349999H56.7109V21H55.6609ZM51.9859 32.27C51.4493 32.27 50.9709 32.1417 50.5509 31.885C50.1543 31.6283 49.8393 31.2667 49.6059 30.8C49.3493 30.3333 49.2209 29.7967 49.2209 29.19C49.2209 28.5833 49.3493 28.0467 49.6059 27.58C49.8393 27.1133 50.1543 26.7517 50.5509 26.495C50.9709 26.215 51.4493 26.075 51.9859 26.075C52.5226 26.075 52.9893 26.215 53.3859 26.495C53.8059 26.7517 54.1326 27.1133 54.3659 27.58C54.5993 28.0467 54.7159 28.5833 54.7159 29.19C54.7159 29.7967 54.5993 30.3333 54.3659 30.8C54.1326 31.2667 53.8059 31.6283 53.3859 31.885C52.9893 32.1417 52.5226 32.27 51.9859 32.27ZM51.9859 31.5C52.3126 31.5 52.6159 31.395 52.8959 31.185C53.1526 30.9983 53.3626 30.73 53.5259 30.38C53.6659 30.0067 53.7359 29.5983 53.7359 29.155C53.7359 28.4783 53.5726 27.93 53.2459 27.51C52.9193 27.09 52.4993 26.88 51.9859 26.88C51.4726 26.88 51.0526 27.09 50.7259 27.51C50.3993 27.93 50.2359 28.4783 50.2359 29.155C50.2359 29.5983 50.3059 30.0067 50.4459 30.38C50.6093 30.73 50.8193 30.9983 51.0759 31.185C51.3326 31.395 51.6359 31.5 51.9859 31.5ZM57.7637 21V0.349999H58.8137V21H57.7637ZM59.8637 21V0.349999H60.9137V21H59.8637ZM63.0137 21V0.349999H67.2137V21H63.0137ZM61.0537 26.215H61.9987V27.405C62.1387 26.9617 62.372 26.635 62.6987 26.425C63.0253 26.1917 63.3987 26.075 63.8187 26.075C64.262 26.075 64.682 26.1917 65.0787 26.425C65.452 26.6583 65.7437 27.0083 65.9537 27.475C66.187 27.9183 66.3037 28.4783 66.3037 29.155C66.3037 29.8083 66.187 30.38 65.9537 30.87C65.7203 31.36 65.417 31.7217 65.0437 31.955C64.647 32.1883 64.227 32.305 63.7837 32.305C63.4337 32.305 63.107 32.2233 62.8037 32.06C62.477 31.8967 62.2203 31.675 62.0337 31.395V34.335H61.0537V26.215ZM63.6437 31.5C64.1103 31.5 64.507 31.3133 64.8337 30.94C65.1603 30.59 65.3237 30.0067 65.3237 29.19C65.3237 28.4433 65.1837 27.8717 64.9037 27.475C64.6237 27.0783 64.2153 26.88 63.6787 26.88C63.1887 26.88 62.792 27.09 62.4887 27.51C62.162 27.93 61.9987 28.56 61.9987 29.4C62.022 30.0767 62.1737 30.59 62.4537 30.94C62.757 31.3133 63.1537 31.5 63.6437 31.5ZM69.3164 21V0.349999H71.4164V21H69.3164ZM74.5664 21V0.349999H75.6164V21H74.5664ZM78.7664 21V0.349999H79.8164V21H78.7664ZM72.8864 31.395H74.4964V24.815H72.9914V24.045H77.0164V24.815H75.4064V31.395H77.0864V32.165H72.8864V31.395ZM80.8691 21V0.349999H82.9691V21H80.8691ZM84.0191 21V0.349999H87.1691V21H84.0191ZM90.3191 21V0.349999H91.3691V21H90.3191ZM86.0841 24.85H83.8091V24.045H89.4091V24.85H87.0291V32.165H86.0841V24.85Z" fill="#FFC000"/>
</svg>
